# xmcd
#
# Track frame offsets:
# 150
# 14833
# 28438
# 44921
# 55805
# 72335
# 93697
# 109561
# 127980
# 143090
# 160886
# 172714
# 181411
#
# Disc length: 2623 seconds
#
#
# Revision: 0
# Processed by: cddbd v1.5.2PL0 Copyright (c) Steve Scherf et al.
# Submitted via: FreeRIP 2.70 
#
DISCID=ba0a3d0d
DTITLE=Andrea Berg - Dezember Nacht
DYEAR=2007
DGENRE=A Cappella
TTITLE0=Andrea Berg     Seit Tausend Jahren (3:15)     Dezember Nacht
TTITLE1=Andrea Berg     Es Ist Ein Ros' Entsprungen (3:01)     Dezember Nacht
TTITLE2=Andrea Berg     Dezembernacht (3:39)     Dezember Nacht
TTITLE3=Andrea Berg     Leise Rieselt Der Schnee (2:25)     Dezember Nacht
TTITLE4=Andrea Berg     Eisblumen Blüh'n (3:40)     Dezember Nacht
TTITLE5=Andrea Berg     Nur Dann Hab Ich Gelebt (4:44)     Dezember Nacht
TTITLE6=Andrea Berg     Stille Nacht, Heilige Nacht (3:31)     Dezember Nacht
TTITLE7=Andrea Berg     Die Kraft Der Liebe (4:05)     Dezember Nacht
TTITLE8=Andrea Berg     Süßer Die Glocken Nie Klingen (3:21)     Dezember Nacht
TTITLE9=Andrea Berg     Die Spuren Sind Längst Geschm (3:57)     Dezember Nacht
TTITLE10=Andrea Berg      In Dieser Nacht War Ein Engel (2:37)     Dezember Nacht
TTITLE11=Andrea Berg     Oh Tannenbaum (1:55)     Dezember Nacht
TTITLE12=Andrea Berg     Aba Heidschi Bumbeidschi (3:24)     Dezember Nacht
EXTD=
EXTT0=
EXTT1=
EXTT2=
EXTT3=
EXTT4=
EXTT5=
EXTT6=
EXTT7=
EXTT8=
EXTT9=
EXTT10=
EXTT11=
EXTT12=
PLAYORDER=
